<?xml version="1.0" encoding="UTF-8" standalone="no"?>
<svg
   xmlns:dc="http://purl.org/dc/elements/1.1/"
   xmlns:cc="http://creativecommons.org/ns#"
   xmlns:rdf="http://www.w3.org/1999/02/22-rdf-syntax-ns#"
   xmlns:svg="http://www.w3.org/2000/svg"
   xmlns="http://www.w3.org/2000/svg"
   xmlns:sodipodi="http://sodipodi.sourceforge.net/DTD/sodipodi-0.dtd"
   xmlns:inkscape="http://www.inkscape.org/namespaces/inkscape"
   width="1083.5753"
   height="1806.7814"
   version="1.1"
   id="svg30"
   sodipodi:docname="mappin.svg"
   inkscape:version="1.0.2-2 (e86c870879, 2021-01-15)">
  <metadata
     id="metadata36">
    <rdf:RDF>
      <cc:Work
         rdf:about="">
        <dc:format>image/svg+xml</dc:format>
        <dc:type
           rdf:resource="http://purl.org/dc/dcmitype/StillImage" />
        <dc:title></dc:title>
      </cc:Work>
    </rdf:RDF>
  </metadata>
  <defs
     id="defs34">
    <clipPath
       clipPathUnits="userSpaceOnUse"
       id="clipPath96">
      <rect
         style="fill:#0000ff;fill-rule:evenodd"
         id="rect98"
         width="1097.4967"
         height="1812.5325"
         x="526.63806"
         y="238.60326" />
    </clipPath>
  </defs>
  <sodipodi:namedview
     pagecolor="#ffffff"
     bordercolor="#666666"
     borderopacity="1"
     objecttolerance="10"
     gridtolerance="10"
     guidetolerance="10"
     inkscape:pageopacity="0"
     inkscape:pageshadow="2"
     inkscape:window-width="2560"
     inkscape:window-height="1369"
     id="namedview32"
     showgrid="false"
     inkscape:snap-page="false"
     inkscape:snap-object-midpoints="false"
     fit-margin-top="0"
     fit-margin-left="0"
     fit-margin-right="0"
     fit-margin-bottom="0"
     inkscape:zoom="0.30068426"
     inkscape:cx="632.76252"
     inkscape:cy="1254.3905"
     inkscape:window-x="1912"
     inkscape:window-y="-8"
     inkscape:window-maximized="1"
     inkscape:current-layer="g118" />
  <g
     id="g118"
     transform="translate(-532.75975,-247.64538)">
    <title
       id="title114">Layer 1</title>
    <path
       fill-rule="evenodd"
       clip-rule="evenodd"
       fill="#007fff"
       stroke="#000000"
       stroke-width="37"
       stroke-miterlimit="10"
       d="M 1075.9399,1959.629 C 1037.1741,1769.328 968.82404,1610.964 886.03699,1464.1891 824.63001,1355.317 753.49304,1254.8261 687.67297,1149.2511 665.70099,1114.0071 646.73901,1076.774 625.62598,1040.197 583.41003,967.06006 549.18201,882.26202 551.35699,772.26502 c 2.125,-107.47297 33.20801,-193.68396 78.02997,-264.172 73.71906,-115.93497 197.20105,-210.98898 362.88404,-235.969 135.4661,-20.42398 262.4751,14.08204 352.543,66.74802 73.6001,43.03799 130.596,100.52701 173.92,168.28 45.22,70.716 76.359,154.26001 78.971,263.23199 1.337,55.83002 -7.805,107.53199 -20.684,150.41797 -13.0339,43.40906 -33.996,79.695 -52.646,118.4541 -36.406,75.6589 -82.049,144.9819 -127.855,214.346 -136.437,206.6059 -264.4961,417.3099 -320.5801,706.0269 z"
       id="svg_2" />
    <circle
       fill-rule="evenodd"
       clip-rule="evenodd"
       cx="1080.546"
       cy="740.047"
       r="183.33203"
       id="svg_4"
       fill="#000000" />
  </g>
</svg>
